# File produced by Open Asset Import Library (http://www.assimp.sf.net)
# (assimp v3.1.206520482)

mtllib Control Panel.mtl

# 221 vertex positions
v -6.5 -100 -713.04
v -6.5 -100 -693.04
v -6.5 86.7185 -693.04
v -6.5 86.7185 -703.04
v -6.5 76.7185 -713.04
v -6.5 100 -600
v -6.5 100 -679.759
v -10 100 -679.759
v -10 100 -600
v -200 -100 -600
v -10 -100 -600
v -200 100 -600
v -6.5 -100 -600
v 60 -100 -693.04
v 60 -100 -600
v -200 -100 -693.04
v -200 100 -679.759
v -200 86.7185 -693.04
v 105.401 210 -668.462
v 105.401 210 -700
v 64 210 -700
v 64 210 -668.462
v 150 210 -700
v 105.401 262.524 -700
v 150 262.524 -700
v 150 210 -600
v 150 210 -660
v 150 262.524 -660
v 150 262.524 -600
v 60 210 -600
v 64 210 -600
v 64 262.524 -600
v 60 262.524 -600
v 126 -100 -600
v 126 -100 -660
v 150 -100 -660
v 150 -100 -600
v 64 262.524 -668.462
v 60 262.524 -668.462
v 127.2 203 -624.15
v 62.8 203 -624.15
v 62 202.2 -624.15
v 62 137.8 -624.15
v 62.8 137 -624.15
v 127.2 137 -624.15
v 128 137.8 -624.15
v 128 202.2 -624.15
v 125 200 -650
v 125 200 -704.2
v 125 140 -704.2
v 125 140 -650
v 65 140 -704.2
v 65 140 -650
v -152.2 117 -596.538
v -152.2 117 -676.588
v -87.8 117 -676.588
v -87.8 117 -596.538
v 65 200 -650
v 65 200 -704.2
v 64 -100 -600
v 64 130 -600
v 60 130 -600
v 150 130 -660
v 150 130 -600
v 150 -100 -700
v 126 -100 -700
v 126 130 -700
v 150 130 -700
v 60 -100 -700
v 60 -100 -660
v 60 130 -660
v 60 130 -700
v 60 201 -600
v 64 201 -600
v 150 201 -600
v 150 201 -660
v 150 201 -700
v 126 201 -700
v 60 201 -700
v 60 201 -660
v 60 210 -668.462
v 60 210 -700
v -153 117.8 -676.588
v -153 117.8 -596.538
v -90 180 -676.588
v -89.2 180.8 -677.388
v -89.2 119.2 -677.388
v -90 120 -676.588
v -150 180 -676.588
v -150.8 180.8 -677.388
v -150.8 119.2 -677.388
v -150 120 -676.588
v -87.8 117.8 -677.388
v -87 117.8 -676.588
v -87 117.8 -596.538
v -87 182.2 -676.588
v -87 182.2 -596.538
v -87.8 183 -596.538
v -87.8 183 -676.588
v -152.2 183 -676.588
v -152.2 183 -596.538
v 62 137.8 -704.2
v 62 202.2 -704.2
v -153 182.2 -596.538
v -153 182.2 -676.588
v 127.2 203 -704.2
v 62.8 203 -704.2
v 62.8 137 -704.2
v 127.2 137 -704.2
v 62.8 202.2 -705
v 64.2 200.8 -705
v 64.2 139.2 -705
v 62.8 137.8 -705
v 128 137.8 -704.2
v 128 202.2 -704.2
v 125.8 139.2 -705
v 127.2 137.8 -705
v 125.8 200.8 -705
v 127.2 202.2 -705
v -150 180 -622.388
v -90 180 -622.388
v -90 120 -622.388
v -150 120 -622.388
v 64 201 -700
v 126 201 -600
v 126 210 -600
v 64 -100 -700
v 64 130 -700
v 126 130 -600
v 105.401 262.524 -668.462
v 126 262.524 -600
v 64 -100 -660
v 64 139 -600
v 126 139 -600
v 64 139 -700
v 60 139 -700
v 150 139 -600
v 57.2 153 -624.15
v -7.2 153 -624.15
v -8 152.2 -624.15
v -8 87.8 -624.15
v -7.2 87 -624.15
v 57.2 87 -624.15
v 58 87.8 -624.15
v 58 152.2 -624.15
v 60 139 -660
v 150 139 -700
v 126 139 -700
v 150 139 -660
v 60 139 -600
v 55 150 -650
v 55 150 -704.2
v 55 90 -704.2
v 55 90 -650
v -5 90 -704.2
v -5 90 -650
v -152.2 182.2 -677.388
v -5 150 -650
v -5 150 -704.2
v -87.8 182.2 -677.388
v -152.2 117.8 -677.388
v -8 87.8 -704.2
v -8 152.2 -704.2
v 57.2 153 -704.2
v -7.2 153 -704.2
v -7.2 87 -704.2
v 57.2 87 -704.2
v -7.2 152.2 -705
v -5.8 150.8 -705
v -5.8 89.2 -705
v -7.2 87.8 -705
v 58 87.8 -704.2
v 58 152.2 -704.2
v 55.8 89.2 -705
v 57.2 87.8 -705
v 55.8 150.8 -705
v 57.2 152.2 -705
v 60 86.7185 -693.04
v 60 86.7185 -703.04
v -10 86.7185 -693.04
v -10 -100 -693.04
v 60 100 -600
v 60 -100 -713.04
v 60 76.7185 -713.04
v -180 -100 -596.101
v -85 -100 -596.101
v -85 100 -596.101
v -180 100 -596.101
v -60 200 -675.301
v -180 200 -675.301
v -180 200 -596.101
v -85 200 -596.101
v -60 200 -621.101
v -180 -100 -675.301
v -60 -100 -675.301
v -60 -100 -621.101
v -246.905 -100 -596.101
v -246.905 100 -596.101
v -60 100 -621.101
v -60 100 -675.301
v -246.905 100 -696.822
v -246.905 100 -675.301
v -246.905 200 -675.301
v -246.905 200 -696.822
v -150.549 182.002 -675.301
v -150.549 117.998 -675.301
v -180 100 -675.301
v -89.4509 117.998 -675.301
v -89.4509 182.002 -675.301
v -246.905 -100 -675.301
v -246.905 200 -596.101
v -180 200 -696.822
v -180 100 -696.822
v -246.905 255.224 -675.301
v -246.905 255.224 -596.101
v -180 -100 -696.822
v -246.905 -100 -696.822
v -180 255.224 -675.301
v -180 255.224 -696.822
v -180 255.224 -596.101
v -246.905 255.224 -696.822

# 266 UV coordinates
vt 0.684843 0.318856 0
vt 0.701494 0.304768 0
vt 0.710608 0.504856 0
vt 0.699895 0.498476 0
vt 0.692435 0.488321 0
vt 0.74741 0.611501 0
vt 0.716847 0.526314 0
vt 0.72012 0.52519 0
vt 0.750684 0.610369 0
vt 0.88462 0.196894 0
vt 0.696338 0.211606 0
vt 0.682627 0.0137701 0
vt 0.869846 1.46627e-05 0
vt 0.692842 0.211804 0
vt 0.608914 0.302831 0
vt 0.626176 0.2152 0
vt 0.893556 0.288468 0
vt 0.999673 0.301876 0
vt 0.957811 0.529579 0
vt 0.896095 0.481636 0
vt 0.891374 0.466197 0
vt 0.542195 0.505376 0
vt 0.502204 0.488232 0
vt 0.559302 0.465103 0
vt 0.578233 0.503833 0
vt 0.448289 0.519474 0
vt 0.514446 0.535765 0
vt 0.483095 0.541583 0
vt 0.436963 0.621074 0
vt 0.437429 0.562785 0
vt 0.486912 0.569716 0
vt 0.478734 0.614632 0
vt 0.472688 0.701989 0
vt 0.471417 0.698348 0
vt 0.529611 0.67593 0
vt 0.531842 0.679758 0
vt 0.168341 0.683763 0
vt 0.116721 0.673312 0
vt 0.133668 0.626768 0
vt 0.170815 0.664681 0
vt 0.57263 0.577325 0
vt 0.576451 0.578374 0
vt 0.853152 0.703981 0
vt 0.856659 0.661635 0
vt 0.857261 0.661331 0
vt 0.901541 0.667988 0
vt 0.901924 0.668628 0
vt 0.894638 0.709023 0
vt 0.894003 0.709234 0
vt 0.853548 0.704599 0
vt 0.752566 0.726786 0
vt 0.794115 0.713404 0
vt 0.886177 0.777134 0
vt 0.764386 0.78135 0
vt 0.970863 0.78135 0
vt 0.907121 0.772611 0
vt 0.96608 0.672098 0
vt 0.999935 0.717644 0
vt 0.15712 0.866567 0
vt 0.119096 0.818202 0
vt 0.27366 0.864481 0
vt 0.203366 0.893562 0
vt 0.729029 0.675316 0
vt 0.827151 0.606527 0
vt 0.174161 0.735572 0
vt 0.172969 0.732529 0
vt 0.391916 0.717349 0
vt 0.392554 0.721467 0
vt 0.361492 0.564504 0
vt 0.371905 0.629302 0
vt 0.118327 0.593184 0
vt 0.113711 0.569733 0
vt 0.348171 0.502455 0
vt 0.353951 0.525618 0
vt 0.145084 0.82168 0
vt 0.156429 0.785576 0
vt 0.39721 0.779845 0
vt 0.39955 0.819935 0
vt 0.463017 0.705255 0
vt 0.461867 0.701577 0
vt 0.430041 0.621434 0
vt 0.429361 0.56123 0
vt 0.439824 0.51857 0
vt 0.461558 0.494808 0
vt 0.47692 0.804604 0
vt 0.472502 0.764576 0
vt 0.483222 0.770709 0
vt 0.485812 0.803614 0
vt 0.114025 0.823439 0
vt 0.156257 0.866815 0
vt 0.213791 0.992802 0
vt 0.210748 0.99565 0
vt 0.273217 0.87931 0
vt 0.272505 0.883356 0
vt 0.102733 0.939713 0
vt 0.103461 0.939344 0
vt 0.198628 0.999557 0
vt 0.19261 0.999488 0
vt 0.0275301 0.834299 0
vt 0.0264815 0.833226 0
vt 0.107494 0.830213 0
vt 0.105302 0.832933 0
vt 0.274499 0.873519 0
vt 0.273726 0.871775 0
vt 0.203592 0.894233 0
vt 0.20696 0.997816 0
vt 0.19519 0.94083 0
vt 0.194443 0.9412 0
vt 0.20551 0.998298 0
vt 0.106045 0.939008 0
vt 0.155415 0.914059 0
vt 0.965854 0.662688 0
vt 0.837766 0.598821 0
vt 0.155188 0.913412 0
vt 0.105242 0.937436 0
vt 0.797182 0.711771 0
vt 0.836394 0.599313 0
vt 0.966379 0.664232 0
vt 0.900261 0.776797 0
vt 0.836214 0.597309 0
vt 0.842168 0.598597 0
vt 0.963247 0.658826 0
vt 0.967946 0.662961 0
vt 0.898917 0.777254 0
vt 0.797718 0.712996 0
vt 0.684883 0.748722 0
vt 0.966696 0.668325 0
vt 0.904106 0.775078 0
vt 0.899943 0.778832 0
vt 0.892099 0.777688 0
vt 0.794965 0.713147 0
vt 0.796131 0.712773 0
vt 0.831101 0.602709 0
vt 0.0719847 0.960798 0
vt 0.038224 0.999999 0
vt 0.00010626 0.896842 0
vt 0.0534444 0.899286 0
vt 0.27065 0.993913 0
vt 0.311355 0.933766 0
vt 0.846342 0.599261 0
vt 0.960093 0.655819 0
vt 0.956378 0.598325 0
vt 0.893527 0.559149 0
vt 0.55671 0.456219 0
vt 0.439192 0.64493 0
vt 0.447269 0.6437 0
vt 0.0987902 0.510434 0
vt 0.329209 0.443847 0
vt 0.377326 0.654626 0
vt 0.53465 0.56416 0
vt 0.493905 0.629075 0
vt 0.151005 0.778599 0
vt 0.582192 0.503336 0
vt 0.563082 0.463723 0
vt 0.0977004 0.506629 0
vt 0.328095 0.440049 0
vt 0.560477 0.455152 0
vt 0.400461 0.715392 0
vt 0.385148 0.653825 0
vt 0.411352 0.82168 0
vt 0.410535 0.817808 0
vt 0.477639 0.808493 0
vt 0.379418 0.628567 0
vt 0.580466 0.826321 0
vt 0.588984 0.78163 0
vt 0.589559 0.781299 0
vt 0.620936 0.79356 0
vt 0.621178 0.794278 0
vt 0.613818 0.82522 0
vt 0.613313 0.825414 0
vt 0.580598 0.826891 0
vt 0.406838 0.778162 0
vt 0.364171 0.523269 0
vt 0.358265 0.499072 0
vt 0.369961 0.563893 0
vt 0.401209 0.719371 0
vt 0.337626 0.440911 0
vt 0.33638 0.437166 0
vt 0.493473 0.896509 0
vt 0.529463 0.853275 0
vt 0.631226 0.868808 0
vt 0.622647 0.893297 0
vt 0.66819 0.815207 0
vt 0.734736 0.922971 0
vt 0.104466 0.938857 0
vt 0.449747 0.922971 0
vt 0.567892 0.711722 0
vt 0.206614 0.999999 0
vt 0.110431 0.826526 0
vt 0.665569 0.813249 0
vt 0.593578 0.70014 0
vt 0.532316 0.850044 0
vt 0.592225 0.700515 0
vt 0.665853 0.814217 0
vt 0.630025 0.866434 0
vt 0.592767 0.697594 0
vt 0.605914 0.68342 0
vt 0.667536 0.814756 0
vt 0.666661 0.814179 0
vt 0.629143 0.866716 0
vt 0.532766 0.851445 0
vt 0.630792 0.8682 0
vt 0.63019 0.867373 0
vt 0.530137 0.852659 0
vt 0.531093 0.851873 0
vt 0.578929 0.705774 0
vt 0.0246194 0.831922 0
vt 0.63036 0.700156 0
vt 0.712794 0.782471 0
vt 0.0245616 0.830804 0
vt 0.110346 0.82541 0
vt 0.608914 0.50978 0
vt 0.619427 0.501676 0
vt 0.714059 0.504214 0
vt 0.704928 0.304759 0
vt 0.679183 0.0140075 0
vt 0.613532 0.0181243 0
vt 0.626051 0.31551 0
vt 0.626139 0.489951 0
vt 0.132758 0.808682 0
vt 0.0798461 0.669012 0
vt 0.538417 0.755122 0
vt 0.320417 0.0942467 0
vt 0.399587 0.0809335 0
vt 0.399363 0.274413 0
vt 0.304511 0.287327 0
vt 0.458771 0.382182 0
vt 0.382195 0.47496 0
vt 0.298739 0.395769 0
vt 0.38664 0.36431 0
vt 0.418893 0.360137 0
vt 0.196512 2.38419e-07 0
vt 0.477618 0.0424221 0
vt 0.430253 0.076898 0
vt 0.276476 0.107801 0
vt 0.233515 0.279188 0
vt 0.435728 0.272706 0
vt 0.488473 0.273336 0
vt 0.121199 0.241942 0
vt 0.146984 0.250189 0
vt 0.144545 0.339278 0
vt 0.119708 0.330702 0
vt 0.0287939 0.352741 0
vt 1.78814e-07 0.320991 0
vt 0.0027256 0.237534 0
vt 0.0316702 0.210003 0
vt 0.513778 0.294248 0
vt 0.481178 0.398489 0
vt 0.60551 0.264736 0
vt 0.576837 0.2863 0
vt 0.42406 0.457482 0
vt 0.595925 0.0490966 0
vt 0.226111 0.0931281 0
vt 0.219565 0.37833 0
vt 0.0497887 0.33827 0
vt 0.0540564 0.218998 0
vt 0.135467 0.389698 0
vt 0.184412 0.43788 0
vt 0.19149 0.0324549 0
vt 0.212543 0.0886351 0
vt 0.0750249 0.394751 0
vt 0.0791222 0.376733 0
vt 0.0725032 0.474961 0
vt 0.124021 0.375031 0
vt 0.0164411 0.45146 0
vt 0.266275 0.453293 0

# 56 vertex normals
vn -1 0 -4.04443e-08
vn 0 1 0
vn 0 0 1
vn 0 -1 0
vn -1 0 0
vn 0 0 -1
vn 1 0 0
vn -0.707103 -0.70711 0
vn -0.707105 0 -0.707109
vn 0 -0.707112 -0.707102
vn 0 0.707107 -0.707107
vn 0.707109 0 -0.707104
vn 0.577342 -0.57735 -0.577359
vn -0.577334 -0.577367 -0.57735
vn -0.577328 0.577378 -0.577345
vn 0.577334 -0.577367 -0.57735
vn 0.577322 0.577373 -0.577356
vn 0.707105 0 -0.707109
vn 0 0.707109 -0.707105
vn 0 -0.707114 -0.7071
vn -0.707108 -0.707105 0
vn -0.707102 0.707112 0
vn -0.707106 0 -0.707107
vn 0 -0.707109 -0.707104
vn 0 0.707115 -0.707099
vn 0.707104 0 -0.707109
vn 0.707108 -0.707105 0
vn 0.707102 0.707112 0
vn -0.577336 0.577361 -0.577353
vn 0.577348 0.577356 -0.577348
vn -0.577336 -0.577361 -0.577353
vn 0 3.37891e-06 -1
vn -0.577345 -0.577362 -0.577343
vn 0 -3.37896e-06 -1
vn -0.577337 0.577371 -0.577343
vn 0.577347 -0.577364 -0.577339
vn 0.577336 0.57737 -0.577345
vn 0.707107 0 -0.707107
vn 0 0.707109 -0.707105
vn 0 -0.707114 -0.7071
vn -0.707107 0 -0.707107
vn -0.707107 0 -0.707107
vn 0 0.707115 -0.707099
vn 0.707106 0 -0.707107
vn -0.707097 0.707117 0
vn -0.7071 0 -0.707113
vn 0 -0.707105 -0.707108
vn 0 0.70711 -0.707103
vn 0.707108 0 -0.707105
vn 0.707108 -0.707105 0
vn 0 0.707107 -0.707107
vn 0 0.707107 -0.707107
vn 0 0.707107 -0.707107
vn 1 0 -1.21333e-07
vn -1.86818e-07 1 0
vn 0.707107 0 0.707107

# Mesh 'Control Panel_Control Panel' with 411 faces
g Control Panel_Control Panel
usemtl DefaultMaterial
f 1/1/1 2/2/1 3/3/1
f 1/1/1 3/3/1 4/4/1
f 4/4/1 5/5/1 1/1/1
f 6/6/2 7/7/2 8/8/2
f 8/8/2 9/9/2 6/6/2
f 10/10/3 11/11/3 9/12/3
f 9/12/3 12/13/3 10/10/3
f 13/14/4 2/2/4 14/15/4
f 14/15/4 15/16/4 13/14/4
f 16/17/5 10/18/5 12/19/5
f 16/17/5 12/19/5 17/20/5
f 17/20/5 18/21/5 16/17/5
f 19/22/2 20/23/2 21/24/2
f 21/24/2 22/25/2 19/22/2
f 23/26/6 20/23/6 24/27/6
f 24/27/6 25/28/6 23/26/6
f 26/29/7 27/30/7 28/31/7
f 28/31/7 29/32/7 26/29/7
f 30/33/3 31/34/3 32/35/3
f 32/35/3 33/36/3 30/33/3
f 34/37/4 35/38/4 36/39/4
f 36/39/4 37/40/4 34/37/4
f 32/35/2 38/41/2 39/42/2
f 39/42/2 33/36/2 32/35/2
f 40/43/3 41/44/3 42/45/3
f 40/43/3 42/45/3 43/46/3
f 40/43/3 43/46/3 44/47/3
f 40/43/3 44/47/3 45/48/3
f 40/43/3 45/48/3 46/49/3
f 46/49/3 47/50/3 40/43/3
f 48/51/5 49/52/5 50/53/5
f 50/53/5 51/54/5 48/51/5
f 51/55/2 50/56/2 52/57/2
f 52/57/2 53/58/2 51/55/2
f 54/59/4 55/60/4 56/61/4
f 56/61/4 57/62/4 54/59/4
f 58/63/4 59/64/4 49/52/4
f 49/52/4 48/51/4 58/63/4
f 15/65/3 60/66/3 61/67/3
f 61/67/3 62/68/3 15/65/3
f 37/40/7 36/39/7 63/69/7
f 63/69/7 64/70/7 37/40/7
f 65/71/6 66/72/6 67/73/6
f 67/73/6 68/74/6 65/71/6
f 69/75/5 70/76/5 71/77/5
f 71/77/5 72/78/5 69/75/5
f 73/79/3 74/80/3 31/34/3
f 31/34/3 30/33/3 73/79/3
f 75/81/7 76/82/7 27/30/7
f 27/30/7 26/29/7 75/81/7
f 77/83/6 78/84/6 20/23/6
f 20/23/6 23/26/6 77/83/6
f 79/85/5 80/86/5 81/87/5
f 81/87/5 82/88/5 79/85/5
f 83/89/8 55/60/8 54/59/8
f 54/59/8 84/90/8 83/89/8
f 85/91/9 86/92/9 87/93/9
f 87/93/9 88/94/9 85/91/9
f 89/95/10 90/96/10 86/97/10
f 86/97/10 85/98/10 89/95/10
f 88/99/11 87/100/11 91/101/11
f 91/101/11 92/102/11 88/99/11
f 90/96/12 89/95/12 92/102/12
f 92/102/12 91/101/12 90/96/12
f 93/103/13 94/104/13 56/61/13
f 95/105/7 94/104/7 96/106/7
f 96/106/7 97/107/7 95/105/7
f 98/108/2 99/109/2 100/110/2
f 100/110/2 101/111/2 98/108/2
f 102/112/5 43/46/5 42/45/5
f 42/45/5 103/113/5 102/112/5
f 83/89/5 84/90/5 104/114/5
f 104/114/5 105/115/5 83/89/5
f 40/43/2 106/116/2 107/117/2
f 107/117/2 41/44/2 40/43/2
f 44/47/4 108/118/4 109/119/4
f 109/119/4 45/48/4 44/47/4
f 110/120/6 111/121/6 112/122/6
f 112/122/6 113/123/6 110/120/6
f 46/49/7 114/124/7 115/125/7
f 115/125/7 47/50/7 46/49/7
f 51/54/6 53/126/6 58/63/6
f 58/63/6 48/51/6 51/54/6
f 113/123/6 112/127/6 116/128/6
f 116/128/6 117/129/6 113/123/6
f 117/129/6 116/130/6 118/131/6
f 118/131/6 119/132/6 117/129/6
f 119/132/6 118/131/6 111/133/6
f 111/133/6 110/120/6 119/132/6
f 108/118/14 102/112/14 113/123/14
f 120/134/4 89/95/4 85/98/4
f 85/98/4 121/135/4 120/134/4
f 122/136/2 88/99/2 92/102/2
f 92/102/2 123/137/2 122/136/2
f 107/117/15 110/120/15 103/113/15
f 117/129/16 114/124/16 109/119/16
f 106/116/17 115/125/17 119/132/17
f 121/138/5 85/91/5 88/94/5
f 88/94/5 122/139/5 121/138/5
f 98/108/3 101/111/3 104/114/3
f 98/108/3 104/114/3 84/90/3
f 98/108/3 84/90/3 54/59/3
f 98/108/3 54/59/3 57/62/3
f 98/108/3 57/62/3 95/105/3
f 95/105/3 97/107/3 98/108/3
f 111/121/18 59/140/18 52/141/18
f 52/141/18 112/122/18 111/121/18
f 50/56/19 116/128/19 112/127/19
f 112/127/19 52/57/19 50/56/19
f 59/64/20 111/133/20 118/131/20
f 118/131/20 49/52/20 59/64/20
f 49/52/9 118/131/9 116/130/9
f 116/130/9 50/53/9 49/52/9
f 102/112/21 108/118/21 44/47/21
f 44/47/21 43/46/21 102/112/21
f 42/45/22 41/44/22 107/117/22
f 107/117/22 103/113/22 42/45/22
f 103/113/23 110/120/23 113/123/23
f 113/123/23 102/112/23 103/113/23
f 117/129/24 109/119/24 108/118/24
f 108/118/24 113/123/24 117/129/24
f 110/120/25 107/117/25 106/116/25
f 106/116/25 119/132/25 110/120/25
f 119/132/26 115/125/26 114/124/26
f 114/124/26 117/129/26 119/132/26
f 46/49/27 45/48/27 109/119/27
f 109/119/27 114/124/27 46/49/27
f 115/125/28 106/116/28 40/43/28
f 40/43/28 47/50/28 115/125/28
f 53/142/7 52/141/7 59/140/7
f 59/140/7 58/143/7 53/142/7
f 78/84/6 124/144/6 21/24/6
f 21/24/6 20/23/6 78/84/6
f 125/145/3 75/81/3 26/29/3
f 26/29/3 126/146/3 125/145/3
f 66/72/6 127/147/6 128/148/6
f 128/148/6 67/73/6 66/72/6
f 34/37/3 37/40/3 64/70/3
f 64/70/3 129/149/3 34/37/3
f 29/32/2 28/31/2 130/150/2
f 130/150/2 131/151/2 29/32/2
f 60/66/4 132/152/4 35/38/4
f 35/38/4 34/37/4 60/66/4
f 126/146/3 26/29/3 29/32/3
f 29/32/3 131/151/3 126/146/3
f 81/153/2 22/25/2 21/24/2
f 21/24/2 82/154/2 81/153/2
f 19/22/5 130/150/5 24/27/5
f 24/27/5 20/23/5 19/22/5
f 15/65/4 70/76/4 132/152/4
f 132/152/4 60/66/4 15/65/4
f 127/147/6 69/155/6 72/156/6
f 72/156/6 128/148/6 127/147/6
f 124/144/6 79/157/6 82/154/6
f 82/154/6 21/24/6 124/144/6
f 74/80/3 125/145/3 126/146/3
f 126/146/3 31/34/3 74/80/3
f 60/66/3 34/37/3 129/149/3
f 129/149/3 61/67/3 60/66/3
f 131/151/2 130/150/2 38/41/2
f 38/41/2 32/35/2 131/151/2
f 31/34/3 126/146/3 131/151/3
f 131/151/3 32/35/3 31/34/3
f 133/158/3 134/159/3 125/145/3
f 125/145/3 74/80/3 133/158/3
f 135/160/6 136/161/6 79/85/6
f 79/85/6 124/162/6 135/160/6
f 134/159/3 137/163/3 75/81/3
f 75/81/3 125/145/3 134/159/3
f 138/164/3 139/165/3 140/166/3
f 138/164/3 140/166/3 141/167/3
f 138/164/3 141/167/3 142/168/3
f 138/164/3 142/168/3 143/169/3
f 138/164/3 143/169/3 144/170/3
f 144/170/3 145/171/3 138/164/3
f 136/161/5 146/172/5 80/86/5
f 80/86/5 79/85/5 136/161/5
f 147/173/6 148/174/6 78/84/6
f 78/84/6 77/83/6 147/173/6
f 137/163/7 149/175/7 76/82/7
f 76/82/7 75/81/7 137/163/7
f 150/176/3 133/158/3 74/80/3
f 74/80/3 73/79/3 150/176/3
f 62/68/3 61/67/3 133/158/3
f 133/158/3 150/176/3 62/68/3
f 64/70/7 63/69/7 149/175/7
f 149/175/7 137/163/7 64/70/7
f 68/74/6 67/73/6 148/174/6
f 148/174/6 147/173/6 68/74/6
f 72/78/5 71/77/5 146/172/5
f 146/172/5 136/161/5 72/78/5
f 67/73/6 128/148/6 135/177/6
f 135/177/6 148/174/6 67/73/6
f 129/149/3 64/70/3 137/163/3
f 137/163/3 134/159/3 129/149/3
f 128/148/6 72/156/6 136/178/6
f 136/178/6 135/177/6 128/148/6
f 61/67/3 129/149/3 134/159/3
f 134/159/3 133/158/3 61/67/3
f 151/179/5 152/180/5 153/181/5
f 153/181/5 154/182/5 151/179/5
f 154/182/2 153/181/2 155/183/2
f 155/183/2 156/184/2 154/182/2
f 100/110/29 157/185/29 105/115/29
f 158/186/4 159/187/4 152/180/4
f 152/180/4 151/179/4 158/186/4
f 99/109/30 96/106/30 160/188/30
f 55/60/31 83/89/31 161/189/31
f 162/190/5 141/167/5 140/166/5
f 140/166/5 163/191/5 162/190/5
f 160/188/32 86/97/32 90/96/32
f 90/96/32 157/185/32 160/188/32
f 138/164/2 164/192/2 165/193/2
f 165/193/2 139/165/2 138/164/2
f 142/168/4 166/194/4 167/195/4
f 167/195/4 143/169/4 142/168/4
f 168/196/6 169/197/6 170/198/6
f 170/198/6 171/199/6 168/196/6
f 144/170/7 172/200/7 173/201/7
f 173/201/7 145/171/7 144/170/7
f 154/182/6 156/184/6 158/186/6
f 158/186/6 151/179/6 154/182/6
f 171/199/6 170/198/6 174/202/6
f 174/202/6 175/203/6 171/199/6
f 175/203/6 174/202/6 176/204/6
f 176/204/6 177/205/6 175/203/6
f 177/205/6 176/204/6 169/206/6
f 169/206/6 168/196/6 177/205/6
f 166/194/33 162/190/33 171/199/33
f 93/103/6 87/93/6 86/92/6
f 86/92/6 160/188/6 93/103/6
f 161/189/34 91/101/34 87/100/34
f 87/100/34 93/207/34 161/189/34
f 165/193/35 168/196/35 163/191/35
f 175/203/36 172/200/36 167/195/36
f 164/192/37 173/201/37 177/205/37
f 122/136/6 123/137/6 120/134/6
f 120/134/6 121/135/6 122/136/6
f 157/185/6 90/96/6 91/101/6
f 91/101/6 161/189/6 157/185/6
f 169/197/38 159/208/38 155/183/38
f 155/183/38 170/198/38 169/197/38
f 153/181/39 174/202/39 170/198/39
f 170/198/39 155/183/39 153/181/39
f 159/187/40 169/206/40 176/204/40
f 176/204/40 152/180/40 159/187/40
f 152/180/41 176/204/41 174/202/41
f 174/202/41 153/181/41 152/180/41
f 162/190/21 166/194/21 142/168/21
f 142/168/21 141/167/21 162/190/21
f 140/166/22 139/165/22 165/193/22
f 165/193/22 163/191/22 140/166/22
f 163/191/42 168/196/42 171/199/42
f 171/199/42 162/190/42 163/191/42
f 175/203/24 167/195/24 166/194/24
f 166/194/24 171/199/24 175/203/24
f 168/196/43 165/193/43 164/192/43
f 164/192/43 177/205/43 168/196/43
f 177/205/44 173/201/44 172/200/44
f 172/200/44 175/203/44 177/205/44
f 144/170/27 143/169/27 167/195/27
f 167/195/27 172/200/27 144/170/27
f 173/201/28 164/192/28 138/164/28
f 138/164/28 145/171/28 173/201/28
f 156/184/7 155/183/7 159/208/7
f 159/208/7 158/209/7 156/184/7
f 104/114/45 101/111/45 100/110/45
f 100/110/45 105/115/45 104/114/45
f 105/115/46 157/185/46 161/189/46
f 161/189/46 83/89/46 105/115/46
f 93/207/47 56/210/47 55/211/47
f 55/211/47 161/189/47 93/207/47
f 157/185/48 100/110/48 99/109/48
f 99/109/48 160/188/48 157/185/48
f 160/188/49 96/106/49 94/104/49
f 94/104/49 93/103/49 160/188/49
f 95/105/50 57/62/50 56/61/50
f 56/61/50 94/104/50 95/105/50
f 96/106/28 99/109/28 98/108/28
f 98/108/28 97/107/28 96/106/28
f 123/137/7 92/102/7 89/95/7
f 89/95/7 120/134/7 123/137/7
f 4/4/2 3/3/2 178/212/2
f 178/212/2 179/213/2 4/4/2
f 9/9/2 8/8/2 17/20/2
f 17/20/2 12/19/2 9/9/2
f 18/21/51 17/20/51 8/8/51
f 8/8/51 180/214/51 18/21/51
f 10/10/4 16/17/4 181/215/4
f 181/215/4 11/11/4 10/10/4
f 11/11/3 13/14/3 6/216/3
f 6/216/3 9/12/3 11/11/3
f 181/215/6 16/17/6 18/21/6
f 18/21/6 180/214/6 181/215/6
f 13/14/3 15/16/3 182/217/3
f 182/217/3 6/216/3 13/14/3
f 180/214/52 8/8/52 7/7/52
f 7/7/52 3/3/52 180/214/52
f 11/11/4 181/215/4 2/2/4
f 2/2/4 13/14/4 11/11/4
f 71/77/5 62/68/5 150/176/5
f 150/176/5 146/172/5 71/77/5
f 2/2/6 181/215/6 180/214/6
f 180/214/6 3/3/6 2/2/6
f 63/69/7 68/74/7 147/173/7
f 147/173/7 149/175/7 63/69/7
f 183/218/6 1/1/6 5/5/6
f 5/5/6 184/219/6 183/218/6
f 183/218/4 14/15/4 2/2/4
f 2/2/4 1/1/4 183/218/4
f 179/213/53 184/219/53 5/5/53
f 5/5/53 4/4/53 179/213/53
f 179/213/54 178/212/54 14/15/54
f 179/213/54 14/15/54 183/218/54
f 183/218/54 184/219/54 179/213/54
f 149/175/7 147/173/7 77/83/7
f 77/83/7 76/82/7 149/175/7
f 146/172/5 150/176/5 73/79/5
f 73/79/5 80/86/5 146/172/5
f 22/25/6 38/41/6 130/150/6
f 130/150/6 19/22/6 22/25/6
f 70/76/4 69/75/4 127/220/4
f 127/220/4 132/152/4 70/76/4
f 132/152/4 127/220/4 66/221/4
f 66/221/4 35/38/4 132/152/4
f 28/31/55 25/28/55 24/27/55
f 24/27/55 130/150/55 28/31/55
f 80/86/5 73/79/5 30/33/5
f 30/33/5 81/87/5 80/86/5
f 76/82/7 77/83/7 23/26/7
f 23/26/7 27/30/7 76/82/7
f 70/76/5 15/65/5 62/68/5
f 62/68/5 71/77/5 70/76/5
f 36/39/7 65/71/7 68/74/7
f 68/74/7 63/69/7 36/39/7
f 81/153/6 39/42/6 38/41/6
f 38/41/6 22/25/6 81/153/6
f 35/38/4 66/221/4 65/71/4
f 65/71/4 36/39/4 35/38/4
f 27/30/7 23/26/7 25/28/7
f 25/28/7 28/31/7 27/30/7
f 81/87/5 30/33/5 33/36/5
f 33/36/5 39/222/5 81/87/5
f 185/223/3 186/224/3 187/225/3
f 187/225/3 188/226/3 185/223/3
f 189/227/2 190/228/2 191/229/2
f 189/227/2 191/229/2 192/230/2
f 192/230/2 193/231/2 189/227/2
f 185/223/4 194/232/4 195/233/4
f 185/223/4 195/233/4 196/234/4
f 196/234/4 186/224/4 185/223/4
f 197/235/3 185/223/3 188/226/3
f 188/226/3 198/236/3 197/235/3
f 199/237/56 187/225/56 186/224/56
f 186/224/56 196/234/56 199/237/56
f 199/237/7 200/238/7 189/227/7
f 189/227/7 193/231/7 199/237/7
f 188/226/3 187/225/3 192/230/3
f 192/230/3 191/229/3 188/226/3
f 201/239/5 202/240/5 203/241/5
f 203/241/5 204/242/5 201/239/5
f 190/243/6 205/244/6 206/245/6
f 206/245/6 207/246/6 190/243/6
f 200/238/6 208/247/6 209/248/6
f 209/248/6 189/227/6 200/238/6
f 207/249/6 206/250/6 208/247/6
f 208/247/6 200/238/6 207/249/6
f 189/227/6 209/248/6 205/251/6
f 205/251/6 190/228/6 189/227/6
f 196/234/7 195/233/7 200/238/7
f 200/238/7 199/237/7 196/234/7
f 193/231/56 192/230/56 187/225/56
f 187/225/56 199/237/56 193/231/56
f 195/233/6 194/252/6 207/249/6
f 207/249/6 200/238/6 195/233/6
f 210/253/5 197/235/5 198/236/5
f 198/236/5 202/240/5 210/253/5
f 202/240/5 198/236/5 211/254/5
f 211/254/5 203/241/5 202/240/5
f 212/255/7 190/243/7 207/246/7
f 207/246/7 213/256/7 212/255/7
f 214/257/5 203/241/5 211/254/5
f 211/254/5 215/258/5 214/257/5
f 210/253/4 194/232/4 185/223/4
f 185/223/4 197/235/4 210/253/4
f 198/236/3 188/226/3 191/229/3
f 191/229/3 211/254/3 198/236/3
f 204/242/6 212/255/6 213/256/6
f 213/256/6 201/239/6 204/242/6
f 201/239/6 213/256/6 216/259/6
f 216/259/6 217/260/6 201/239/6
f 217/260/5 210/253/5 202/240/5
f 202/240/5 201/239/5 217/260/5
f 216/259/4 194/232/4 210/253/4
f 210/253/4 217/260/4 216/259/4
f 213/256/7 207/246/7 194/232/7
f 194/232/7 216/259/7 213/256/7
f 218/261/7 190/243/7 212/255/7
f 212/255/7 219/262/7 218/261/7
f 215/258/2 220/263/2 218/261/2
f 218/261/2 214/257/2 215/258/2
f 221/264/2 214/257/2 218/261/2
f 218/261/2 219/262/2 221/264/2
f 219/262/6 212/255/6 204/242/6
f 204/242/6 221/264/6 219/262/6
f 220/263/7 191/265/7 190/243/7
f 190/243/7 218/261/7 220/263/7
f 215/258/3 211/254/3 191/229/3
f 191/229/3 220/266/3 215/258/3
f 221/264/5 204/242/5 203/241/5
f 203/241/5 214/257/5 221/264/5

