# File produced by Open Asset Import Library (http://www.assimp.sf.net)
# (assimp v3.1.206520482)

mtllib Creature Tank.mtl

# 64 vertex positions
v 4.76403e-05 90 134.475
v -26.3371 90 131.881
v -51.6622 90 124.198
v -75.0019 90 111.723
v -95.4594 90 94.934
v -112.248 90 74.4766
v -124.724 90 51.1369
v -132.406 90 25.8118
v -135 90 -0.525346
v -132.406 90 -26.8625
v -124.724 90 -52.1876
v -112.248 90 -75.5273
v -95.4594 90 -95.9848
v -75.002 90 -112.774
v -51.6623 90 -125.249
v -26.3372 90 -132.931
v 3.65173e-06 90 -135.525
v 26.3372 90 -132.931
v 51.6623 90 -125.249
v 75.002 90 -112.774
v 95.4594 90 -95.9848
v 112.248 90 -75.5273
v 124.724 90 -52.1876
v 132.406 90 -26.8625
v 135 90 -0.525314
v 132.406 90 25.8119
v 124.724 90 51.137
v 112.248 90 74.4767
v 95.4593 90 94.9341
v 75.0019 90 111.723
v 51.6621 90 124.198
v 26.337 90 131.881
v -51.6622 510 124.198
v -26.3372 510 131.881
v 2.81915e-05 510 134.475
v 26.337 510 131.881
v 51.6621 510 124.198
v 75.0018 510 111.723
v 95.4593 510 94.9341
v 112.248 510 74.4767
v 124.724 510 51.137
v 132.406 510 25.8119
v 135 510 -0.525314
v 132.406 510 -26.8625
v 124.724 510 -52.1876
v 112.248 510 -75.5273
v 95.4594 510 -95.9848
v 75.002 510 -112.774
v 51.6623 510 -125.249
v 26.3372 510 -132.931
v -1.57971e-05 510 -135.525
v -26.3372 510 -132.931
v -51.6623 510 -125.249
v -75.002 510 -112.774
v -95.4594 510 -95.9848
v -112.248 510 -75.5273
v -124.724 510 -52.1876
v -132.406 510 -26.8625
v -135 510 -0.525346
v -132.406 510 25.8118
v -124.724 510 51.1369
v -112.248 510 74.4766
v -95.4594 510 94.934
v -75.002 510 111.723

# 86 UV coordinates
vt 0.309593 0.473911 0
vt 0.296405 0.452792 0
vt 0.287057 0.42964 0
vt 0.281876 0.405222 0
vt 0.282158 0.379886 0
vt 0.286894 0.355101 0
vt 0.296018 0.331786 0
vt 0.309068 0.310727 0
vt 0.32543 0.292471 0
vt 0.347022 0.2832 0
vt 0.369322 0.279083 0
vt 0.391025 0.280411 0
vt 0.410873 0.286925 0
vt 0.427718 0.298162 0
vt 0.443234 0.311569 0
vt 0.459851 0.325808 0
vt 0.473784 0.342195 0
vt 0.484844 0.360283 0
vt 0.492799 0.379605 0
vt 0.498572 0.399291 0
vt 0.501008 0.4195 0
vt 0.500861 0.439596 0
vt 0.497204 0.459593 0
vt 0.488168 0.477555 0
vt 0.472611 0.493458 0
vt 0.45558 0.508502 0
vt 0.435175 0.519312 0
vt 0.41347 0.524279 0
vt 0.390407 0.523725 0
vt 0.367448 0.517882 0
vt 0.345739 0.507142 0
vt 0.326228 0.492251 0
vt 0.970911 0.102977 0
vt 0.985614 0.133726 0
vt 0.994743 0.16658 0
vt 0.999999 0.199572 0
vt 0.999322 0.232988 0
vt 0.992721 0.265766 0
vt 0.987816 0.296666 0
vt 0.977139 0.326087 0
vt 0.961094 0.352972 0
vt 0.940239 0.37634 0
vt 0.91533 0.395345 0
vt 0.859501 0.436762 0
vt 0.800325 0.473308 0
vt 0.800202 0.424799 0
vt 0.792997 0.376325 0
vt 0.773791 0.330665 0
vt 0.757407 0.284153 0
vt 0.730102 0.240814 0
vt 0.705531 0.196469 0
vt 0.683879 0.151606 0
vt 0.665357 0.106467 0
vt 0.647932 0.0600244 0
vt 0.673387 0.0399888 0
vt 0.702447 0.0217746 0
vt 0.734236 0.00885302 0
vt 0.767778 0.00149119 0
vt 0.802107 2.38419e-07 0
vt 0.836197 0.0044488 0
vt 0.869024 0.0147189 0
vt 0.899748 0.0300195 0
vt 0.927385 0.0504014 0
vt 0.951096 0.0752642 0
vt 0.695267 0.643542 0
vt 0.776741 0.571973 0
vt 0.470917 0.00274381 0
vt 0.379316 2.38419e-07 0
vt 0.62847 0.71808 0
vt 0.561537 0.0236317 0
vt 0.545259 0.765575 0
vt 0.455558 0.790597 0
vt 0.0344424 0.559765 0
vt 0.0757393 0.631492 0
vt 0.365139 0.794138 0
vt 0.00885302 0.481229 0
vt 0.278627 0.777593 0
vt 2.98023e-07 0.398832 0
vt 0.199774 0.743192 0
vt 0.00847143 0.316277 0
vt 0.131418 0.693569 0
vt 0.0342789 0.236813 0
vt 0.0770461 0.163887 0
vt 0.135985 0.101083 0
vt 0.209925 0.0522237 0
vt 0.290889 0.0165738 0

# 64 vertex normals
vn 0 -0.68569 0.727866
vn -0.142003 -0.68569 0.713889
vn -0.278542 -0.68569 0.672475
vn -0.40437 -0.68569 0.605213
vn -0.514664 -0.68569 0.514664
vn -0.605213 -0.68569 0.40437
vn -0.672475 -0.68569 0.278542
vn -0.713889 -0.68569 0.142003
vn -0.727866 -0.68569 0
vn -0.713889 -0.68569 -0.142003
vn -0.672475 -0.68569 -0.278542
vn -0.605213 -0.68569 -0.40437
vn -0.514664 -0.68569 -0.514664
vn -0.40437 -0.68569 -0.605213
vn -0.278542 -0.68569 -0.672475
vn -0.142003 -0.68569 -0.713889
vn 0 -0.68569 -0.727866
vn 0.142003 -0.68569 -0.713889
vn 0.278542 -0.68569 -0.672475
vn 0.40437 -0.68569 -0.605213
vn 0.514664 -0.68569 -0.514664
vn 0.605213 -0.68569 -0.40437
vn 0.672475 -0.68569 -0.278542
vn 0.713889 -0.68569 -0.142003
vn 0.727866 -0.68569 0
vn 0.713889 -0.68569 0.142003
vn 0.672475 -0.68569 0.278542
vn 0.605213 -0.68569 0.40437
vn 0.514664 -0.68569 0.514695
vn 0.40437 -0.68569 0.605213
vn 0.278542 -0.68569 0.672475
vn 0.142003 -0.68569 0.713889
vn -0.278542 0.68569 0.672475
vn -0.142003 0.68569 0.713889
vn 0 0.68569 0.727866
vn 0.142003 0.68569 0.713889
vn 0.278542 0.68569 0.672475
vn 0.40437 0.68569 0.605213
vn 0.514664 0.68569 0.514695
vn 0.605213 0.68569 0.40437
vn 0.672475 0.68569 0.278542
vn 0.713889 0.68569 0.142003
vn 0.727866 0.68569 0
vn 0.713889 0.68569 -0.142003
vn 0.672475 0.68569 -0.278542
vn 0.605213 0.68569 -0.40437
vn 0.514664 0.68569 -0.514664
vn 0.40437 0.68569 -0.605213
vn 0.278542 0.68569 -0.672475
vn 0.142003 0.68569 -0.713889
vn 0 0.68569 -0.727866
vn -0.142003 0.68569 -0.713889
vn -0.278542 0.68569 -0.672475
vn -0.40437 0.68569 -0.605213
vn -0.514664 0.68569 -0.514664
vn -0.605213 0.68569 -0.40437
vn -0.672475 0.68569 -0.278542
vn -0.713889 0.68569 -0.142003
vn -0.727866 0.68569 0
vn -0.713889 0.68569 0.142003
vn -0.672475 0.68569 0.278542
vn -0.605213 0.68569 0.40437
vn -0.514664 0.68569 0.514664
vn -0.40437 0.68569 0.605213

# Mesh 'Creature Tank Glass_Creature Tank Glass' with 124 faces
g Creature Tank Glass_Creature Tank Glass
usemtl DefaultMaterial
f 1/1/1 2/2/2 3/3/3
f 1/1/1 3/3/3 4/4/4
f 1/1/1 4/4/4 5/5/5
f 1/1/1 5/5/5 6/6/6
f 1/1/1 6/6/6 7/7/7
f 1/1/1 7/7/7 8/8/8
f 1/1/1 8/8/8 9/9/9
f 1/1/1 9/9/9 10/10/10
f 1/1/1 10/10/10 11/11/11
f 1/1/1 11/11/11 12/12/12
f 1/1/1 12/12/12 13/13/13
f 1/1/1 13/13/13 14/14/14
f 1/1/1 14/14/14 15/15/15
f 1/1/1 15/15/15 16/16/16
f 1/1/1 16/16/16 17/17/17
f 1/1/1 17/17/17 18/18/18
f 1/1/1 18/18/18 19/19/19
f 1/1/1 19/19/19 20/20/20
f 1/1/1 20/20/20 21/21/21
f 1/1/1 21/21/21 22/22/22
f 1/1/1 22/22/22 23/23/23
f 1/1/1 23/23/23 24/24/24
f 1/1/1 24/24/24 25/25/25
f 1/1/1 25/25/25 26/26/26
f 1/1/1 26/26/26 27/27/27
f 1/1/1 27/27/27 28/28/28
f 1/1/1 28/28/28 29/29/29
f 1/1/1 29/29/29 30/30/30
f 1/1/1 30/30/30 31/31/31
f 31/31/31 32/32/32 1/1/1
f 33/33/33 34/34/34 35/35/35
f 33/33/33 35/35/35 36/36/36
f 33/33/33 36/36/36 37/37/37
f 33/33/33 37/37/37 38/38/38
f 33/33/33 38/38/38 39/39/39
f 33/33/33 39/39/39 40/40/40
f 33/33/33 40/40/40 41/41/41
f 33/33/33 41/41/41 42/42/42
f 33/33/33 42/42/42 43/43/43
f 33/33/33 43/43/43 44/44/44
f 33/33/33 44/44/44 45/45/45
f 33/33/33 45/45/45 46/46/46
f 33/33/33 46/46/46 47/47/47
f 33/33/33 47/47/47 48/48/48
f 33/33/33 48/48/48 49/49/49
f 33/33/33 49/49/49 50/50/50
f 33/33/33 50/50/50 51/51/51
f 33/33/33 51/51/51 52/52/52
f 33/33/33 52/52/52 53/53/53
f 33/33/33 53/53/53 54/54/54
f 33/33/33 54/54/54 55/55/55
f 33/33/33 55/55/55 56/56/56
f 33/33/33 56/56/56 57/57/57
f 33/33/33 57/57/57 58/58/58
f 33/33/33 58/58/58 59/59/59
f 33/33/33 59/59/59 60/60/60
f 33/33/33 60/60/60 61/61/61
f 33/33/33 61/61/61 62/62/62
f 33/33/33 62/62/62 63/63/63
f 63/63/63 64/64/64 33/33/33
f 43/65/43 25/25/25 24/24/24
f 24/24/24 44/66/44 43/65/43
f 56/67/56 12/12/12 11/11/11
f 11/11/11 57/68/57 56/67/56
f 42/69/42 26/26/26 25/25/25
f 25/25/25 43/65/43 42/69/42
f 55/70/55 13/13/13 12/12/12
f 12/12/12 56/67/56 55/70/55
f 41/71/41 27/27/27 26/26/26
f 26/26/26 42/69/42 41/71/41
f 54/54/54 14/14/14 13/13/13
f 13/13/13 55/70/55 54/54/54
f 40/72/40 28/28/28 27/27/27
f 27/27/27 41/71/41 40/72/40
f 53/53/53 15/15/15 14/14/14
f 14/14/14 54/54/54 53/53/53
f 34/73/34 2/2/2 1/1/1
f 1/1/1 35/74/35 34/73/34
f 39/75/39 29/29/29 28/28/28
f 28/28/28 40/72/40 39/75/39
f 52/52/52 16/16/16 15/15/15
f 15/15/15 53/53/53 52/52/52
f 33/76/33 3/3/3 2/2/2
f 2/2/2 34/73/34 33/76/33
f 38/77/38 30/30/30 29/29/29
f 29/29/29 39/75/39 38/77/38
f 51/51/51 17/17/17 16/16/16
f 16/16/16 52/52/52 51/51/51
f 64/78/64 4/4/4 3/3/3
f 3/3/3 33/76/33 64/78/64
f 37/79/37 31/31/31 30/30/30
f 30/30/30 38/77/38 37/79/37
f 50/50/50 18/18/18 17/17/17
f 17/17/17 51/51/51 50/50/50
f 63/80/63 5/5/5 4/4/4
f 4/4/4 64/78/64 63/80/63
f 36/81/36 32/32/32 31/31/31
f 31/31/31 37/79/37 36/81/36
f 49/49/49 19/19/19 18/18/18
f 18/18/18 50/50/50 49/49/49
f 62/82/62 6/6/6 5/5/5
f 5/5/5 63/80/63 62/82/62
f 35/74/35 1/1/1 32/32/32
f 32/32/32 36/81/36 35/74/35
f 48/48/48 20/20/20 19/19/19
f 19/19/19 49/49/49 48/48/48
f 61/83/61 7/7/7 6/6/6
f 6/6/6 62/82/62 61/83/61
f 47/47/47 21/21/21 20/20/20
f 20/20/20 48/48/48 47/47/47
f 60/84/60 8/8/8 7/7/7
f 7/7/7 61/83/61 60/84/60
f 46/46/46 22/22/22 21/21/21
f 21/21/21 47/47/47 46/46/46
f 59/85/59 9/9/9 8/8/8
f 8/8/8 60/84/60 59/85/59
f 45/45/45 23/23/23 22/22/22
f 22/22/22 46/46/46 45/45/45
f 58/86/58 10/10/10 9/9/9
f 9/9/9 59/85/59 58/86/58
f 44/66/44 24/24/24 23/23/23
f 23/23/23 45/45/45 44/66/44
f 57/68/57 11/11/11 10/10/10
f 10/10/10 58/86/58 57/68/57

